<?xml version="1.0" encoding="UTF-8"?>
<!DOCTYPE svg PUBLIC "-//W3C//DTD SVG 1.1//EN" "http://www.w3.org/Graphics/SVG/1.1/DTD/svg11.dtd">
<!-- Creator: CorelDRAW X7 -->
<svg xmlns="http://www.w3.org/2000/svg" xml:space="preserve" width="17.7114mm" height="22.3263mm" version="1.1" shape-rendering="geometricPrecision" text-rendering="geometricPrecision" image-rendering="optimizeQuality" fill-rule="evenodd" clip-rule="evenodd"
viewBox="0 0 135 170"
 xmlns:xlink="http://www.w3.org/1999/xlink">
 <defs>
   <linearGradient id="id0" gradientUnits="userSpaceOnUse" x1="67.316" y1="147.008" x2="67.316" y2="40.6752">
    <stop offset="0" stop-opacity="1" stop-color="#2052DA"/>
    <stop offset="1" stop-opacity="1" stop-color="#70BEFE"/>
   </linearGradient>
 </defs>
 <g id="Layer_x0020_1">
  <metadata id="CorelCorpID_0Corel-Layer"/>
  <polygon fill="#393185" fill-rule="nonzero" points="50,170 50,29 0,29 0,0 135,0 135,29 85,29 85,170 "/>
  <path fill="url(#id0)" d="M21 114l23 -2c1,7 3,12 6,16l0 24c-6,-1 -11,-4 -15,-8 -7,-7 -12,-17 -14,-30zm64 16l0 0c3,-4 5,-7 5,-12 0,-2 0,-5 -2,-7 -2,-2 -4,-3 -8,-5 -3,-1 -9,-2 -18,-5 -12,-3 -21,-7 -26,-12 -7,-6 -10,-14 -10,-23 0,-6 1,-12 5,-17 3,-5 8,-9 14,-12 1,-1 3,-2 5,-2l0 22c-2,2 -3,4 -3,7 0,3 2,5 4,7 3,3 10,5 21,8 11,3 19,6 24,9 6,2 10,6 13,12 3,5 4,11 4,18 0,7 -2,13 -5,19 -4,6 -9,10 -15,13 -3,1 -6,2 -8,3l0 -23zm0 -95c5,2 10,4 14,7 7,7 10,16 11,27l-23 1c0,-4 -1,-6 -2,-9l0 -26z"/>
 </g>
</svg>
