<?xml version="1.0" encoding="UTF-8"?>
<!DOCTYPE svg PUBLIC "-//W3C//DTD SVG 1.1//EN" "http://www.w3.org/Graphics/SVG/1.1/DTD/svg11.dtd">
<!-- Creator: CorelDRAW X7 -->
<svg xmlns="http://www.w3.org/2000/svg" xml:space="preserve" width="232.999mm" height="22.3263mm" version="1.1" shape-rendering="geometricPrecision" text-rendering="geometricPrecision" image-rendering="optimizeQuality" fill-rule="evenodd" clip-rule="evenodd"
viewBox="0 0 23300 2233"
 xmlns:xlink="http://www.w3.org/1999/xlink">
 <defs>
    <linearGradient id="id0" gradientUnits="userSpaceOnUse" x1="885.562" y1="1933.93" x2="885.562" y2="535.095">
     <stop offset="0" stop-opacity="1" stop-color="#2052DA"/>
     <stop offset="1" stop-opacity="1" stop-color="#70BEFE"/>
    </linearGradient>
 </defs>
 <g id="Layer_x0020_1">
  <metadata id="CorelCorpID_0Corel-Layer"/>
  <g id="_2321612713552">
   <polygon fill="#393185" fill-rule="nonzero" points="661,2233 661,377 0,377 0,0 1771,0 1771,377 1113,377 1113,2233 "/>
   <path fill="url(#id0)" d="M282 1504l293 -30c15,89 44,157 86,205l0 326c-79,-23 -145,-58 -199,-106 -100,-90 -160,-222 -180,-395zm831 204l2 -1c49,-43 73,-93 73,-150 0,-36 -10,-67 -31,-93 -20,-26 -56,-48 -107,-67 -35,-13 -114,-35 -239,-68 -160,-41 -272,-93 -336,-153 -91,-86 -137,-190 -137,-313 0,-79 22,-153 64,-222 43,-69 105,-121 185,-157 23,-10 48,-19 74,-27l0 298c-24,23 -37,52 -37,87 0,37 15,68 45,94 38,34 129,68 275,104 145,36 252,74 322,112 70,38 124,91 164,157 39,67 59,149 59,247 0,88 -24,172 -71,249 -47,77 -114,135 -200,173 -32,14 -67,25 -105,34l0 -304zm0 -1248c74,21 135,54 184,99 94,86 143,201 148,345l-300 10c-7,-41 -17,-76 -32,-106l0 -348z"/>
   <path fill="#2052DA" fill-rule="nonzero" d="M2866 1458l382 -38c23,128 69,222 139,282 70,60 165,90 284,90 125,0 220,-27 284,-80 64,-54 96,-116 96,-188 0,-46 -14,-84 -41,-117 -26,-32 -73,-60 -140,-84 -46,-16 -150,-44 -312,-85 -210,-52 -356,-116 -441,-193 -119,-107 -178,-237 -178,-391 0,-99 28,-192 84,-279 56,-86 136,-152 241,-197 106,-45 232,-68 381,-68 243,0 426,54 549,162 122,108 187,252 193,432l-393 14c-17,-101 -53,-172 -107,-216 -55,-44 -137,-66 -247,-66 -113,0 -201,23 -265,70 -41,31 -62,71 -62,121 0,47 20,86 58,118 50,42 169,86 360,131 190,45 331,92 421,140 92,48 163,114 215,197 51,84 77,187 77,309 0,111 -31,216 -93,313 -62,97 -149,169 -262,216 -113,48 -254,71 -422,71 -246,0 -434,-56 -566,-170 -131,-113 -209,-277 -235,-494z"/>
   <path id="1" fill="#2052DA" fill-rule="nonzero" d="M5417 680l0 295 -255 0 0 570c0,116 3,183 8,202 5,19 15,35 33,48 17,12 38,18 63,18 35,0 84,-11 150,-35l31 289c-86,37 -184,55 -293,55 -67,0 -127,-11 -181,-34 -54,-22 -93,-51 -118,-87 -25,-36 -42,-85 -52,-146 -8,-44 -12,-131 -12,-264l0 -616 -171 0 0 -295 171 0 0 -279 371 -220 0 499 255 0z"/>
   <path id="2" fill="#2052DA" fill-rule="nonzero" d="M6608 2087l0 -210c-52,75 -119,134 -203,179 -83,44 -172,66 -264,66 -95,0 -180,-20 -255,-62 -76,-42 -130,-100 -163,-175 -34,-76 -51,-180 -51,-313l0 -892 372 0 0 648c0,198 6,319 20,364 14,45 39,81 75,106 37,27 83,40 139,40 63,0 120,-18 171,-53 51,-35 85,-78 104,-130 18,-52 28,-178 28,-380l0 -595 371 0 0 1407 -344 0z"/>
   <path id="3" fill="#2052DA" fill-rule="nonzero" d="M8625 2087l-345 0 0 -206c-57,80 -125,140 -204,181 -78,40 -157,60 -236,60 -163,0 -301,-65 -417,-195 -115,-131 -173,-313 -173,-546 0,-239 56,-421 168,-545 113,-124 255,-186 427,-186 157,0 293,66 408,196l0 -700 372 0 0 1941zm-993 -731c0,151 21,260 62,327 60,98 144,147 251,147 86,0 159,-37 218,-110 60,-73 90,-182 90,-328 0,-162 -29,-279 -87,-350 -58,-72 -133,-107 -223,-107 -89,0 -162,35 -222,105 -59,71 -89,176 -89,316z"/>
   <path id="4" fill="#2052DA" fill-rule="nonzero" d="M9804 1642l371 63c-47,136 -123,239 -225,311 -103,71 -232,106 -386,106 -245,0 -426,-80 -543,-240 -93,-128 -139,-290 -139,-485 0,-234 61,-417 182,-549 122,-132 276,-198 462,-198 209,0 374,69 495,207 121,139 178,351 173,636l-930 0c3,111 33,196 90,258 57,61 128,92 213,92 59,0 107,-16 147,-47 39,-32 69,-83 90,-154zm21 -376c-2,-108 -30,-191 -83,-247 -53,-56 -117,-84 -193,-84 -81,0 -148,30 -200,89 -53,59 -79,140 -78,242l554 0z"/>
   <path id="5" fill="#2052DA" fill-rule="nonzero" d="M11778 2087l-371 0 0 -717c0,-152 -9,-250 -24,-294 -17,-45 -42,-79 -79,-104 -36,-25 -79,-37 -130,-37 -65,0 -123,17 -175,53 -52,35 -87,82 -106,140 -19,58 -29,166 -29,323l0 636 -371 0 0 -1407 344 0 0 206c124,-157 279,-236 466,-236 82,0 158,15 226,44 69,30 120,68 155,113 35,46 60,98 73,157 14,58 21,141 21,250l0 873z"/>
   <path id="6" fill="#2052DA" fill-rule="nonzero" d="M12797 680l0 295 -255 0 0 570c0,116 2,183 7,202 5,19 16,35 34,48 17,12 38,18 63,18 35,0 84,-11 150,-35l31 289c-86,37 -184,55 -293,55 -67,0 -127,-11 -181,-34 -54,-22 -93,-51 -118,-87 -25,-36 -43,-85 -52,-146 -8,-44 -12,-131 -12,-264l0 -616 -171 0 0 -295 171 0 0 -279 371 -220 0 499 255 0z"/>
   <polygon id="7" fill="#2052DA" fill-rule="nonzero" points="14250,2087 14250,474 13675,474 13675,146 15215,146 15215,474 14643,474 14643,2087 "/>
   <path id="8" fill="#2052DA" fill-rule="nonzero" d="M15673 2087l-372 0 0 -1407 345 0 0 200c59,-95 112,-157 160,-186 47,-30 101,-44 161,-44 85,0 167,24 245,70l-115 325c-63,-41 -121,-61 -175,-61 -52,0 -97,14 -133,42 -36,29 -64,81 -85,156 -21,75 -31,232 -31,471l0 434z"/>
   <path id="9" fill="#2052DA" fill-rule="nonzero" d="M16649 1114l-336 -60c38,-137 104,-239 196,-305 93,-66 231,-99 413,-99 166,0 290,19 371,59 81,39 139,89 172,149 33,61 49,172 49,333l-5 434c0,124 6,215 17,274 12,58 34,121 67,188l-369 0c-9,-24 -22,-60 -36,-108 -5,-22 -10,-37 -13,-44 -63,63 -131,109 -203,140 -72,32 -149,47 -231,47 -144,0 -258,-39 -341,-118 -83,-78 -125,-177 -125,-297 0,-79 19,-150 57,-213 38,-62 91,-110 160,-143 68,-33 166,-62 295,-86 174,-33 294,-64 361,-92l0 -37c0,-72 -17,-124 -53,-155 -35,-31 -102,-46 -200,-46 -67,0 -118,13 -155,40 -38,26 -68,72 -91,139zm499 301c-47,15 -123,34 -226,57 -103,22 -171,43 -203,64 -48,35 -72,78 -72,131 0,53 19,97 58,135 39,38 88,57 148,57 67,0 131,-22 192,-66 45,-34 75,-74 89,-123 9,-32 14,-92 14,-181l0 -74z"/>
   <path id="10" fill="#2052DA" fill-rule="nonzero" d="M19106 1097l-366 65c-12,-72 -40,-127 -84,-164 -44,-37 -100,-55 -170,-55 -92,0 -166,32 -222,96 -55,64 -82,171 -82,322 0,167 28,285 84,354 56,69 131,104 225,104 70,0 128,-21 173,-61 45,-40 77,-109 95,-208l366 63c-38,168 -110,295 -218,381 -108,85 -252,128 -433,128 -205,0 -369,-65 -491,-194 -123,-131 -184,-310 -184,-540 0,-233 62,-414 184,-544 123,-129 289,-194 498,-194 171,0 307,37 408,111 101,73 173,185 217,336z"/>
   <polygon id="11" fill="#2052DA" fill-rule="nonzero" points="19375,2087 19375,146 19747,146 19747,1176 20182,680 20640,680 20160,1194 20675,2087 20274,2087 19919,1452 19747,1637 19747,2087 "/>
   <path id="12" fill="#2052DA" fill-rule="nonzero" d="M21710 1642l372 63c-48,136 -123,239 -226,311 -103,71 -232,106 -386,106 -244,0 -425,-80 -542,-240 -93,-128 -140,-290 -140,-485 0,-234 61,-417 183,-549 122,-132 276,-198 462,-198 209,0 374,69 495,207 120,139 178,351 173,636l-930 0c2,111 32,196 90,258 57,61 128,92 213,92 58,0 107,-16 146,-47 40,-32 70,-83 90,-154zm22 -376c-3,-108 -30,-191 -83,-247 -53,-56 -117,-84 -193,-84 -81,0 -148,30 -201,89 -53,59 -78,140 -78,242l555 0z"/>
   <path id="13" fill="#2052DA" fill-rule="nonzero" d="M22760 2087l-371 0 0 -1407 344 0 0 200c59,-95 112,-157 160,-186 47,-30 101,-44 161,-44 85,0 167,24 246,70l-116 325c-62,-41 -121,-61 -174,-61 -53,0 -97,14 -133,42 -36,29 -65,81 -86,156 -21,75 -31,232 -31,471l0 434z"/>
  </g>
 </g>
</svg>
